<?xml version="1.0" encoding="utf-8"?>
<!-- Generator: Adobe Illustrator 16.0.0, SVG Export Plug-In . SVG Version: 6.00 Build 0)  -->
<!DOCTYPE svg PUBLIC "-//W3C//DTD SVG 1.1//EN" "http://www.w3.org/Graphics/SVG/1.1/DTD/svg11.dtd">
<svg version="1.1" id="Layer_1" xmlns="http://www.w3.org/2000/svg" xmlns:xlink="http://www.w3.org/1999/xlink" x="0px" y="0px"
	 width="262px" height="62px" viewBox="0 0 262 62" enable-background="new 0 0 262 62" xml:space="preserve">
<g id="BE" display="none">
	<rect y="-6.385" display="inline" fill="none" width="262" height="62"/>
	<path display="inline" d="M22.293,27.852c-1.331-2.172-3.31-3.259-5.936-3.259c-1.453,0-2.726,0.279-3.819,0.835
		c-1.281,0.668-2.312,1.534-3.094,2.591l1.062-6.686c0.123-0.78-0.051-1.448-0.52-2.006c-0.471-0.556-1.097-0.836-1.878-0.836h-2.85
		L2.22,37.631c-0.629,3.956,0.09,6.631,2.161,8.023c2.069,1.393,4.444,2.09,7.127,2.09c1.394,0,2.845-0.237,4.344-0.709
		c1.5-0.475,2.752-1.24,3.76-2.299c2.021-2.174,3.306-4.987,3.854-8.441C24.016,32.838,23.625,30.025,22.293,27.852z M17.724,36.044
		c-0.353,2.228-1.042,3.927-2.066,5.097c-1.024,1.17-2.318,1.756-3.883,1.756c-1.507,0-2.589-0.586-3.241-1.756
		C7.92,40.083,7.8,38.385,8.172,36.044c0.317-2.007,0.989-3.595,2.013-4.765c1.015-1.114,2.304-1.673,3.87-1.673
		c1.451,0,2.504,0.586,3.156,1.755C17.87,32.479,18.042,34.037,17.724,36.044z"/>
	<path display="inline" d="M33.521,21.417c0.122-0.781-0.051-1.45-0.521-2.007c-0.471-0.556-1.097-0.835-1.879-0.835h-3.016
		l-0.731,4.597h5.867L33.521,21.417z"/>
	<path display="inline" d="M31.966,25.93c-0.471-0.557-1.098-0.836-1.879-0.836H27.07l-3.531,22.233h5.867l3.08-19.391
		C32.608,27.155,32.435,26.487,31.966,25.93z"/>
	<path display="inline" d="M55.772,25.093h-7.04l-8.424,8.191l1.3-8.191l0.598-3.76c0.114-0.724-0.063-1.366-0.533-1.923
		c-0.471-0.556-1.097-0.835-1.879-0.835h-3.017l-4.566,28.752h5.865l0.851-5.351l0.492-3.099c0.07-0.438,0.429-0.772,1.081-1.001
		c0.648-0.227,1.275,0.417,1.873,1.928l2.912,7.521h7.04l-5.868-13.707L55.772,25.093z"/>
	<path display="inline" fill="#ED1C24" d="M68.391,40.471h4.19c-0.987,2.342-2.445,4.127-4.371,5.35
		c-1.936,1.283-4.216,1.929-6.84,1.929c-3.185,0-5.508-1.028-6.968-3.097c-1.471-2.006-1.908-4.877-1.315-8.604
		c0.566-3.562,1.874-6.353,3.926-8.359c2.114-2.061,4.765-3.092,7.949-3.092c3.354,0,5.791,1.002,7.317,3.008
		c1.459,2.062,1.898,4.93,1.314,8.61c-0.035,0.229-0.065,0.417-0.093,0.584c-0.027,0.167-0.045,0.279-0.053,0.334
		c-0.045,0.277-0.104,0.478-0.178,0.587H58.773c-0.22,1.729-0.005,3.012,0.646,3.846c0.583,0.894,1.602,1.338,3.055,1.338
		c0.948,0,1.791-0.192,2.523-0.584c0.176-0.059,0.345-0.152,0.507-0.293s0.34-0.293,0.535-0.459
		c0.082-0.168,0.327-0.394,0.733-0.668C67.18,40.611,67.72,40.471,68.391,40.471z M59.369,33.954h8.548
		c0.126-1.504-0.087-2.618-0.641-3.343c-0.605-0.78-1.575-1.17-2.916-1.17c-1.228,0-2.297,0.39-3.203,1.17
		C60.25,31.391,59.654,32.504,59.369,33.954z"/>
	<path display="inline" fill="#ED1C24" d="M101.791,40.471h4.189c-0.987,2.342-2.443,4.127-4.368,5.35
		c-1.938,1.283-4.218,1.929-6.843,1.929c-3.184,0-5.508-1.028-6.967-3.097c-1.469-2.006-1.908-4.877-1.315-8.604
		c0.566-3.562,1.875-6.353,3.926-8.359c2.115-2.061,4.766-3.092,7.95-3.092c3.353,0,5.792,1.002,7.317,3.008
		c1.458,2.062,1.899,4.93,1.314,8.61c-0.035,0.229-0.066,0.417-0.093,0.584c-0.026,0.167-0.046,0.279-0.053,0.334
		c-0.044,0.277-0.104,0.478-0.177,0.587h-14.5c-0.219,1.729-0.003,3.012,0.647,3.846c0.584,0.894,1.602,1.338,3.058,1.338
		c0.948,0,1.789-0.192,2.522-0.584c0.176-0.059,0.346-0.152,0.506-0.293c0.161-0.141,0.341-0.293,0.534-0.459
		c0.083-0.168,0.328-0.394,0.736-0.668C100.582,40.611,101.119,40.471,101.791,40.471z M92.769,33.954h8.548
		c0.127-1.504-0.086-2.618-0.642-3.343c-0.603-0.78-1.575-1.17-2.915-1.17c-1.229,0-2.298,0.39-3.203,1.17
		C93.65,31.391,93.053,32.504,92.769,33.954z"/>
	<path display="inline" d="M131.009,23.087h-5.028c-1.174,0-2.091,0.501-2.753,1.505l-5.417,7.188l-2.792-6.682h-6.454l5.161,10.783
		l-9.11,11.45h6.788l5.221-7.021l2.824,7.021h6.704l-5.57-11.366L131.009,23.087z"/>
	<path display="inline" d="M142.286,40.471c-0.67,0-1.193,0.141-1.575,0.42c-0.379,0.278-0.639,0.5-0.775,0.666
		c-0.189,0.168-0.373,0.323-0.535,0.461c-0.162,0.144-0.33,0.237-0.506,0.291c-0.729,0.396-1.574,0.586-2.521,0.586
		c-1.454,0-2.478-0.44-3.058-1.338c-0.84-1.058-1.055-2.869-0.646-5.432c0.409-2.562,1.202-4.402,2.389-5.517
		c0.901-0.78,1.975-1.17,3.198-1.17c1.345,0,2.312,0.39,2.915,1.17c0.235,0.279,0.447,0.697,0.643,1.253h5.867
		c-0.189-1.615-0.689-3.036-1.507-4.262c-1.521-2.006-3.962-3.008-7.312-3.008c-3.188,0-5.836,1.031-7.949,3.092
		c-2.051,2.006-3.358,4.793-3.925,8.359c-0.592,3.731-0.155,6.603,1.316,8.608c1.459,2.062,3.781,3.092,6.966,3.092
		c2.625,0,4.899-0.641,6.842-1.924c1.928-1.223,3.384-3.008,4.369-5.354h-4.19v0.007H142.286L142.286,40.471z"/>
	<path display="inline" d="M155.361,35.876c0.308-1.95,0.972-3.481,1.986-4.597c1.016-1.114,2.305-1.673,3.863-1.673
		c1.453,0,2.51,0.586,3.159,1.755c0.387,0.725,0.596,1.435,0.625,2.131c0.022,0.699-0.021,1.463-0.154,2.3l-1.827,11.534h5.608
		l2.062-12.956c0.402-2.562,0.189-4.567-0.64-6.016c-0.833-1.449-1.979-2.508-3.438-3.176c-1.564-0.669-3.312-0.78-5.228-0.335
		c-1.914,0.447-3.507,1.505-4.776,3.176l1.047-6.602c0.129-0.781-0.049-1.45-0.519-2.007c-0.47-0.556-1.097-0.835-1.877-0.835H152.4
		l-4.563,28.752h5.698L155.361,35.876z"/>
	<path display="inline" d="M173.378,46.113c1.337,1.088,3.011,1.631,5.021,1.631c1.006,0,2.183-0.07,3.516-0.209
		c1.334-0.139,2.639-0.516,3.906-1.129c1.203-0.557,2.312-1.461,3.322-2.715c1.006-1.256,1.69-2.996,2.043-5.229l1.209-7.604
		c0.317-2.007-0.244-3.566-1.688-4.681c-1.396-1.058-3.658-1.588-6.788-1.588c-2.794,0-5.046,0.641-6.759,1.921
		c-1.518,1.116-2.525,2.537-3.021,4.264h5.613c0.378-0.613,0.893-1.031,1.541-1.255c0.648-0.221,1.364-0.334,2.146-0.334
		c0.726,0,1.502,0.126,2.33,0.377c0.819,0.25,1.172,0.794,1.039,1.629c-0.181,1.12-1.521,1.836-4.031,2.17
		c-0.512,0.06-0.973,0.125-1.375,0.209c-0.406,0.084-0.748,0.129-1.023,0.129c-2.178,0.332-4.029,1.001-5.559,2.005
		c-1.528,1.003-2.479,2.677-2.85,5.019C171.575,43.23,172.043,45.027,173.378,46.113z M177.445,40.557
		c0.098-0.613,0.389-1.226,0.878-1.84c0.519-0.445,1.303-0.808,2.354-1.086l1.987-0.418c1.45-0.333,2.601-0.695,3.438-1.086
		l-0.332,2.09c-0.25,1.559-0.892,2.786-1.926,3.676c-1.037,0.896-2.336,1.338-3.896,1.338c-0.952,0-1.646-0.221-2.074-0.668
		C177.459,42.061,177.314,41.393,177.445,40.557z"/>
	<path display="inline" d="M212.158,26.514c-1.865-1.281-4.025-1.921-6.483-1.921c-2.422,0.112-4.726,0.808-6.911,2.089
		c-2.187,1.282-3.58,3.817-4.183,7.604l-2.069,13.04h5.865l2.256-14.209c0.211-1.338,0.756-2.312,1.637-2.925
		c0.881-0.613,1.822-0.92,2.828-0.92s1.864,0.307,2.578,0.92c0.713,0.613,0.963,1.587,0.75,2.925l-1.805,11.367
		c-0.133,0.836,0.023,1.519,0.47,2.047c0.447,0.529,1.091,0.795,1.929,0.795h2.938l2.063-13.04
		C214.643,30.388,214.02,27.796,212.158,26.514z"/>
	<path display="inline" d="M235.195,26.765c-2.062-1.448-4.432-2.172-7.113-2.172c-3.52,0-6.247,1.073-8.18,3.217
		c-1.938,2.146-3.174,4.946-3.729,8.401c-0.468,2.952-0.241,5.335,0.673,7.145c0.909,1.812,2.15,3.056,3.727,3.726
		c1.57,0.668,3.238,0.812,5.005,0.417c1.764-0.395,3.274-1.364,4.526-2.93l-0.229,1.427c-0.396,1.778-1.04,3.112-1.938,4.011
		c-0.896,0.895-1.816,1.438-2.771,1.629c-0.954,0.194-1.854,0.084-2.712-0.335c-0.854-0.417-1.441-1.021-1.771-1.797h-6.119
		c0.472,4.793,3.271,7.188,8.412,7.188c2.686,0,5.28-0.713,7.797-2.131c2.519-1.422,4.084-4.084,4.705-7.981l1.871-11.783
		C237.979,30.89,237.256,28.215,235.195,26.765z M230.928,38.34c-0.433,1.311-0.949,2.271-1.548,2.885
		c-1.292,1.451-3.022,1.965-5.19,1.547c-2.17-0.418-2.941-2.549-2.336-6.393c0.283-1.783,0.869-3.373,1.769-4.766
		c0.892-1.392,2.282-2.089,4.188-2.089c1.396,0,2.377,0.502,2.943,1.504c0.562,1.003,0.85,2.146,0.837,3.427
		C231.579,35.736,231.355,37.031,230.928,38.34z"/>
	<path display="inline" d="M258.434,27.346c-1.521-2.005-3.961-3.009-7.312-3.009c-3.187,0-5.834,1.032-7.95,3.092
		c-2.051,2.007-3.355,4.793-3.925,8.358c-0.595,3.732-0.155,6.604,1.312,8.609c1.459,2.062,3.782,3.092,6.967,3.092
		c2.625,0,4.906-0.639,6.848-1.922c1.926-1.229,3.383-3.01,4.365-5.354h-4.188c-0.67,0-1.211,0.146-1.615,0.418
		c-0.408,0.278-0.65,0.502-0.732,0.668c-0.194,0.175-0.373,0.322-0.533,0.466c-0.162,0.141-0.331,0.231-0.508,0.295
		c-0.732,0.387-1.574,0.582-2.521,0.582c-1.453,0-2.473-0.445-3.057-1.343c-0.648-0.834-0.866-2.11-0.646-3.843h14.498
		c0.071-0.105,0.133-0.311,0.176-0.586c0.014-0.061,0.027-0.167,0.057-0.334c0.023-0.167,0.062-0.362,0.098-0.586
		C260.333,32.277,259.896,29.408,258.434,27.346z M254.075,33.699h-8.55c0.285-1.449,0.881-2.563,1.789-3.344
		c0.898-0.78,1.974-1.171,3.203-1.171c1.342,0,2.312,0.391,2.914,1.171C253.988,31.081,254.2,32.193,254.075,33.699z"/>
	<path display="inline" d="M146.242,58.801l-0.215,1.362h2.207l0.351-2.202h-1.368C146.657,57.961,146.331,58.241,146.242,58.801z"
		/>
	<path display="inline" d="M153.312,52.154c0.434-0.375,0.94-0.562,1.535-0.562c0.643,0,1.104,0.188,1.396,0.562
		c0.11,0.133,0.216,0.332,0.307,0.601h2.812c-0.094-0.774-0.334-1.454-0.721-2.043c-0.729-0.961-1.896-1.44-3.506-1.44
		c-1.527,0-2.796,0.492-3.809,1.48c-0.982,0.961-1.61,2.294-1.881,4.004c-0.285,1.79-0.075,3.165,0.629,4.126
		c0.701,0.988,1.812,1.483,3.338,1.483c1.26,0,2.352-0.309,3.279-0.922c0.924-0.586,1.621-1.442,2.095-2.562h-2.009
		c-0.321,0-0.573,0.066-0.754,0.198c-0.187,0.135-0.312,0.241-0.373,0.319c-0.092,0.082-0.18,0.156-0.254,0.223
		c-0.08,0.066-0.16,0.113-0.244,0.139c-0.354,0.188-0.754,0.279-1.209,0.279c-0.696,0-1.188-0.212-1.463-0.641
		c-0.401-0.506-0.506-1.375-0.312-2.604C152.366,53.57,152.747,52.688,153.312,52.154z"/>
	<path display="inline" d="M167.544,49.591c-0.832-0.319-1.808-0.407-2.931-0.261c-1.121,0.148-2.094,0.619-2.916,1.422
		c-0.506,0.48-0.914,1.08-1.23,1.803c-0.314,0.721-0.531,1.441-0.645,2.161c-0.141,0.884-0.152,1.728-0.041,2.543
		s0.41,1.462,0.895,1.943c0.459,0.479,1.121,0.821,1.987,1.021c0.864,0.2,1.758,0.182,2.679-0.06
		c1.024-0.213,1.93-0.761,2.711-1.642c0.362-0.433,0.688-0.947,0.973-1.562c0.283-0.611,0.494-1.346,0.629-2.203
		c0.189-1.173,0.123-2.201-0.188-3.081C169.139,50.686,168.498,49.992,167.544,49.591z M166.919,54.796
		c-0.196,1.07-0.494,1.845-0.892,2.325c-0.398,0.479-0.813,0.781-1.25,0.9c-0.438,0.121-0.836,0.104-1.217-0.039
		c-0.379-0.146-0.629-0.328-0.756-0.541c-0.326-0.481-0.418-1.33-0.279-2.543c0.141-1.215,0.541-2.129,1.197-2.744
		c0.219-0.188,0.532-0.342,0.957-0.459c0.422-0.123,0.816-0.115,1.198,0.019c0.384,0.134,0.688,0.44,0.918,0.921
		C167.029,53.116,167.07,53.835,166.919,54.796z"/>
	<path display="inline" d="M186.009,50.191c-0.894-0.612-1.93-0.92-3.106-0.92c-0.592,0.021-1.176,0.105-1.748,0.258
		c-0.568,0.146-1.086,0.395-1.543,0.742c-0.422-0.4-0.908-0.668-1.479-0.801c-0.568-0.138-1.16-0.199-1.773-0.199
		c-1.156,0.054-2.267,0.385-3.312,1c-1.05,0.615-1.716,1.83-2.006,3.646l-0.991,6.247h2.812l1.08-6.807
		c0.104-0.646,0.363-1.109,0.787-1.403c0.42-0.293,0.871-0.44,1.354-0.44c0.479,0,0.895,0.146,1.232,0.44
		c0.342,0.293,0.461,0.762,0.356,1.403l-0.089,0.561l-0.988,6.247h2.771l0.989-6.247l0.09-0.561
		c0.104-0.646,0.369-1.109,0.808-1.403c0.435-0.293,0.896-0.44,1.375-0.44s0.896,0.146,1.231,0.44
		c0.343,0.293,0.461,0.762,0.361,1.403l-0.867,5.44c-0.062,0.399,0.017,0.729,0.229,0.979c0.215,0.257,0.521,0.383,0.925,0.383
		h1.403l0.99-6.247C187.199,52.048,186.9,50.807,186.009,50.191z"/>
	<path display="inline" d="M187.691,58.801l-0.217,1.362h2.209l0.349-2.202h-1.364C188.104,57.961,187.779,58.241,187.691,58.801z"
		/>
	<path display="inline" d="M199.991,50.031c-0.671-0.508-1.755-0.76-3.255-0.76c-1.338,0-2.418,0.308-3.236,0.92
		c-0.729,0.535-1.21,1.215-1.451,2.043h2.692c0.179-0.295,0.425-0.494,0.737-0.604c0.312-0.106,0.648-0.157,1.024-0.157
		c0.353,0,0.724,0.059,1.116,0.18c0.396,0.117,0.562,0.379,0.497,0.781c-0.083,0.53-0.729,0.881-1.937,1.041
		c-0.244,0.022-0.465,0.062-0.66,0.103c-0.188,0.036-0.354,0.058-0.486,0.058c-1.043,0.162-1.936,0.479-2.661,0.963
		c-0.729,0.479-1.188,1.28-1.365,2.401c-0.188,1.203,0.034,2.062,0.677,2.585c0.642,0.521,1.438,0.779,2.403,0.779
		c0.479,0,1.042-0.033,1.685-0.104c0.642-0.062,1.267-0.244,1.875-0.537c0.576-0.271,1.104-0.701,1.59-1.307
		c0.479-0.604,0.812-1.438,0.979-2.503l0.58-3.646C200.949,51.312,200.68,50.566,199.991,50.031z M197.627,55.799
		c-0.12,0.747-0.426,1.336-0.922,1.762s-1.121,0.646-1.869,0.646c-0.455,0-0.786-0.104-0.99-0.318
		c-0.203-0.24-0.275-0.562-0.212-0.964c0.046-0.294,0.188-0.587,0.421-0.88c0.25-0.215,0.625-0.393,1.129-0.521l0.955-0.198
		c0.692-0.158,1.241-0.335,1.648-0.521L197.627,55.799z"/>
	<path display="inline" d="M209.23,49.91c-0.297,0.268-0.479,0.59-0.535,0.963l-0.864,5.445c-0.103,0.642-0.371,1.104-0.804,1.402
		c-0.438,0.297-0.896,0.438-1.375,0.438c-0.48,0-0.889-0.146-1.215-0.438c-0.328-0.298-0.441-0.766-0.342-1.402l1.077-6.812h-2.812
		l-0.992,6.25c-0.293,1.844-0.016,3.061,0.854,3.646c0.854,0.589,1.854,0.908,3,0.963c1.176,0,2.307-0.297,3.391-0.883
		s1.777-1.828,2.078-3.728l0.992-6.25h-1.406C209.877,49.509,209.527,49.646,209.23,49.91z"/>
	<path display="inline" fill="#ED1C24" d="M89.134,13.039c5.732-0.994,5.439-12.171-2.107-10.504
		C79.439,4.209,83.32,14.047,89.134,13.039z"/>
	<path display="inline" fill="#ED1C24" d="M91.464,25.419c-2.69-3.564-7.032-4.893-8.954-9.455c-0.89-2.111-0.533-7.245-2.143-8.102
		V7.86c-0.205-0.138-0.562-0.265-0.562-0.265c-6.533-2.226-15.504,0.403-16.587,7.264c0.007,0.004,0.014,0.008,0.021,0.012
		c-0.605,4.581,9.685,7.509,12.442,12.065c2.887,4.771,0.262,9.494-2.106,15.233c4.66-3.69,11.034-9.251,9.481-16.284
		c-0.622-2.801-5.097-6.974-9.614-9.879c1.035-0.438,2.034-0.994,2.945-1.638C77.955,19.725,86.783,24.938,91.464,25.419z"/>
</g>
<g id="RENO" display="none">
	<g display="inline">
		<path fill="#4B4B4A" d="M10.865,23.54L40.74,5.216c0.307-0.223,0.773-0.357,1.249-0.357c0.477,0,0.944,0.133,1.25,0.358
			L73.114,23.54c0.112,0.082,0.221,0.185,0.329,0.298h4.412c-0.532-1.372-1.434-2.639-2.521-3.432L45.459,2.083
			C44.501,1.384,43.269,1,41.988,1c-1.279,0-2.511,0.384-3.469,1.083L8.645,20.406c-1.087,0.793-1.988,2.061-2.521,3.432h4.412
			C10.644,23.725,10.752,23.621,10.865,23.54z"/>
		<path fill="#4B4B4A" d="M74.571,54.635c0,0.668-0.535,1.209-1.192,1.209H10.601c-0.657,0-1.192-0.541-1.192-1.209v-3.748H5.605
			v3.748c0,2.795,2.241,5.068,4.995,5.068h62.778c2.754,0,4.996-2.273,4.996-5.068v-3.748H74.57L74.571,54.635L74.571,54.635z"/>
		<path fill="#4B4B4A" d="M175.282,57.523c-0.607,0-1.064,0.453-1.07,1.054c-0.01,0.29,0.103,0.571,0.31,0.774
			c0.194,0.188,0.455,0.297,0.732,0.297h0.014c0.604,0,1.069-0.465,1.069-1.062C176.337,57.98,175.884,57.523,175.282,57.523z"/>
		<path fill="#4B4B4A" d="M143.391,57.523c-0.604,0-1.062,0.453-1.063,1.054c-0.015,0.29,0.104,0.571,0.308,0.774
			c0.195,0.188,0.456,0.297,0.733,0.297h0.014c0.604,0,1.063-0.465,1.063-1.062C144.445,57.98,143.994,57.523,143.391,57.523z"/>
		<path fill="#4B4B4A" d="M156.6,42.648c0,2.947,2.033,6.119,6.496,6.119c2.807,0,4.697-1.226,5.801-2.268v0.604
			c0,0.834,0.684,1.516,1.518,1.516h0.146c0.834,0,1.515-0.682,1.515-1.516V35.055c0-5.569-2.607-8.511-7.546-8.511
			c-2.182,0-4.512,0.678-6.233,1.815l-0.401,0.267l1.104,2.575l0.584-0.418c1.271-0.906,2.949-1.403,4.746-1.403h0.067
			c3.021,0,4.5,1.736,4.508,5.306C158.202,34.75,156.6,39.693,156.6,42.648z M168.545,37.507c0.116,0,0.232,0,0.35,0.002v3.755
			c0,0.217-0.021,0.637-0.168,1.002l-0.011,0.027c-0.599,1.758-2.334,3.637-5.411,3.637c-1.668,0-3.451-0.951-3.451-3.617
			C159.855,39.124,162.779,37.507,168.545,37.507z"/>
		<path fill="#4B4B4A" d="M231.911,30.293c-1.459-2.454-3.843-3.75-6.892-3.75c-2.732,0-5.192,1.115-6.924,3.139
			c-1.781,2.08-2.726,4.966-2.726,8.349c0,6.396,4.01,10.693,9.979,10.693c3.047,0,4.985-0.604,6.082-1.107c0,0,0,0,0.396-0.189
			c0.256-0.117,0.562-0.804,0.281-1.507l-0.043-0.11c-0.195-0.513-0.699-0.854-1.258-0.854c-0.166,0-0.33,0.029-0.48,0.089
			l-0.628,0.233c-1.142,0.384-2.479,0.568-4.104,0.568c-4.35,0-6.908-2.845-7.091-7.824h14.729l0.101-0.453
			c0.099-0.438,0.099-0.777,0.099-1.344C233.445,35.439,233.335,32.688,231.911,30.293z M218.729,35.271
			c0.193-1.033,0.629-2.5,1.611-3.754c1.11-1.418,2.602-2.144,4.43-2.144c1.553,0,2.801,0.469,3.711,1.392
			c1.336,1.357,1.646,3.33,1.701,4.5h-11.453V35.271L218.729,35.271z"/>
		<path fill="#4B4B4A" d="M90.874,26.543c-2.733,0-5.192,1.115-6.925,3.139c-1.779,2.08-2.719,4.966-2.719,8.349
			c0,6.396,4.01,10.693,9.979,10.693c3.046,0,4.988-0.604,6.081-1.107c0,0,0,0,0.4-0.189c0.256-0.117,0.562-0.804,0.282-1.507
			l-0.042-0.11c-0.197-0.513-0.702-0.854-1.257-0.854c-0.167,0-0.33,0.029-0.483,0.089l-0.628,0.233
			c-1.138,0.384-2.48,0.568-4.102,0.568c-4.347,0-6.908-2.845-7.091-7.824h14.732l0.1-0.453c0.097-0.438,0.097-0.777,0.097-1.344
			c0-0.787-0.111-3.541-1.534-5.937C96.307,27.84,93.923,26.543,90.874,26.543z M84.583,35.271c0.194-1.033,0.63-2.5,1.611-3.754
			c1.11-1.418,2.6-2.144,4.429-2.144c1.553,0,2.802,0.469,3.711,1.392c1.337,1.357,1.646,3.33,1.701,4.5H84.583V35.271z"/>
		<path fill="#4B4B4A" d="M128.156,29.446c2.2,0,3.642,0.596,4.463,1.096l0.566,0.345l1.168-2.679l-0.379-0.273
			c-0.945-0.683-3.19-1.375-5.657-1.375c-6.472,0-10.993,4.677-10.993,11.374c0,6.422,4.226,10.907,10.276,10.907
			c2.182,0,4.329-0.471,6.194-1.362l0.471-0.223l-0.928-2.695l-0.583,0.271c-0.909,0.421-2.445,1.126-4.817,1.126
			c-4.446,0-7.432-3.292-7.432-8.188C120.513,31.625,124.63,29.446,128.156,29.446z"/>
		<path fill="#4B4B4A" d="M151.208,35.58v10.271h0.006l0.001,1.015h0.002v0.215c0,0.834,0.68,1.515,1.514,1.515h0.146
			c0.835,0,1.518-0.68,1.518-1.515v-0.222v-0.188v-0.819v-1.678v-8.809c0-3.438-1.021-5.979-3.033-7.545
			c-1.797-1.399-3.809-1.551-4.588-1.551c-1.512,0-3.025,0.438-4.393,1.265c-0.729,0.443-1.393,1.007-1.943,1.652v-11.34h-0.012
			v-0.245c0-0.834-0.679-1.514-1.513-1.514h-0.146c-0.834,0-1.518,0.679-1.518,1.514v0.232v0.173v28.666v0.316v0.089
			c0,0.834,0.684,1.517,1.516,1.517h0.146c0.835,0,1.514-0.683,1.514-1.517v-0.033l0.005-0.004v-0.05l0.006-0.428V35.2
			c0-0.776,0.033-1.274,0.219-1.83c0.875-2.455,3.164-4.169,5.568-4.169C150.561,29.202,151.208,33.197,151.208,35.58z
			 M137.259,46.675h-0.002l0.002-0.108V46.675z"/>
		<path fill="#4B4B4A" d="M176.088,48.596h0.145c0.834,0,1.52-0.68,1.52-1.515v-0.033l0.004-0.004v-0.051l0.008-0.427V35.201
			c0-0.776,0.033-1.275,0.223-1.83c0.875-2.455,3.164-4.17,5.562-4.17c4.342,0,4.98,3.996,4.98,6.378V45.85h0.012l0.002,1.016h0.002
			v0.22c0,0.834,0.684,1.519,1.518,1.519h0.145c0.835,0,1.516-0.684,1.516-1.519v-0.226v-0.186V45.85v-1.674v-8.808
			c0-3.44-1.021-5.979-3.033-7.545c-1.797-1.399-3.808-1.55-4.588-1.55c-1.511,0-3.028,0.437-4.39,1.264
			c-0.729,0.443-1.392,1.007-1.946,1.652v-1.117h-0.01v-0.245c0-0.834-0.68-1.513-1.514-1.513h-0.146
			c-0.834,0-1.514,0.679-1.514,1.513v0.232v0.174v18.441v0.316v0.09C174.575,47.916,175.254,48.596,176.088,48.596z M174.583,46.675
			h-0.002l0.002-0.108V46.675z"/>
		<path fill="#4B4B4A" d="M211.645,26.31h-0.146c-0.835,0-1.515,0.679-1.515,1.513l-0.008,1.178
			c-1.146-1.231-3.061-2.441-6.127-2.441c-2.469,0-4.893,1.063-6.647,2.916c-1.386,1.458-3.037,4.1-3.037,8.415
			c0,6.002,3.983,10.528,9.263,10.528c2.688,0,5.022-1.001,6.549-2.744v1.111c0,0.163-0.004,0.321-0.009,0.479
			c-0.391,4.504-2.956,7.088-7.04,7.088c-1.625,0-2.971-0.188-4.094-0.565l-0.632-0.235c-0.157-0.061-0.32-0.092-0.487-0.092
			c-0.555,0-1.061,0.346-1.257,0.857l-0.042,0.111c-0.266,0.65,0.034,1.396,0.288,1.512c0.19,0.088,0.396,0.184,0.396,0.184
			c1.092,0.505,3.034,1.107,6.082,1.107c5.797,0,9.805-4.137,9.971-10.31l0.011-1.948l0.001-12.146c0-0.076-0.01-0.146-0.014-0.227
			V29.36l0.014-1.54C213.157,26.989,212.479,26.31,211.645,26.31z M209.977,39.45c0,0.628-0.104,1.325-0.308,1.965
			c-0.937,2.528-3.185,4.16-5.733,4.16c-3.041,0-6.59-2.067-6.59-7.896c0-4.951,2.682-8.281,6.674-8.281
			c3.951,0,5.395,3.222,5.737,4.208c0.183,0.512,0.22,1.08,0.22,1.785V39.45L209.977,39.45z"/>
		<path fill="#4B4B4A" d="M116.442,45.895l-0.101-0.142l-4.479-6.247l-1.299-1.802l1.261-1.784l4.546-6.396l-0.008-0.006l0.142-0.2
			c0.484-0.681,0.324-1.627-0.356-2.11l-0.118-0.084c-0.68-0.484-1.627-0.324-2.111,0.356l-0.134,0.189l-0.1,0.142l-4.454,6.265
			l-0.636,0.898l-5.229-7.251l-0.007,0.005l-0.143-0.199c-0.487-0.678-1.434-0.834-2.112-0.348l-0.118,0.084
			c-0.678,0.487-0.835,1.434-0.348,2.112l0.134,0.189l0.101,0.14l5.778,8.015l-5.808,8.215l0.009,0.006l-0.143,0.199
			c-0.483,0.68-0.323,1.627,0.356,2.109l0.118,0.084c0.68,0.482,1.627,0.324,2.111-0.355l0.135-0.188l0.1-0.145l5.089-7.195
			l0.655,0.906l4.573,6.377l0.008-0.006l0.143,0.199c0.487,0.678,1.434,0.834,2.112,0.348l0.118-0.084
			c0.678-0.483,0.834-1.437,0.348-2.109L116.442,45.895z"/>
		<g>
			<path fill="#E75325" d="M27.004,26.641c-2.779,0-5.28,1.135-7.043,3.195c-1.805,2.109-2.759,5.035-2.759,8.46
				c0,6.493,4.074,10.854,10.138,10.854c3.08,0,5.046-0.611,6.154-1.123c0,0,0.207-0.104,0.448-0.211
				c0.241-0.11,0.67-0.807,0.302-1.65l-0.042-0.109c-0.217-0.562-0.771-0.938-1.378-0.938c-0.184,0-0.363,0.031-0.53,0.097
				l-0.626,0.236c-1.131,0.379-2.463,0.562-4.074,0.562c-4.246,0-6.763-2.758-6.983-7.599h14.752l0.122-0.554
				c0.101-0.457,0.101-0.803,0.101-1.375C35.584,32.828,33.777,26.641,27.004,26.641z M20.844,35.398
				c0.205-1.017,0.64-2.385,1.562-3.562c1.09-1.392,2.551-2.098,4.345-2.098c1.523,0,2.745,0.457,3.633,1.359
				c0.374,0.378,1.519,1.743,1.666,4.303L20.844,35.398L20.844,35.398z"/>
			<path fill="#E75325" d="M76.03,29.783c-1.845-2.045-4.387-3.125-7.352-3.125c-2.764,0-5.32,1.068-7.197,3.008
				c-2.037,2.104-3.114,5.039-3.114,8.486c0,3.242,0.994,6.037,2.873,8.084c1.821,1.979,4.357,3.074,7.141,3.074h0.042
				c2.594,0,5.149-1.013,7.01-2.769c1.544-1.456,3.384-4.147,3.384-8.729C78.819,34.584,77.855,31.807,76.03,29.783z M68.509,46.203
				h-0.043c-3.793,0-6.654-3.516-6.654-8.178c0-5.707,3.427-8.262,6.824-8.262c4.945,0,6.739,4.865,6.739,8.135
				C75.375,42.633,72.423,46.203,68.509,46.203z"/>
			<path fill="#E75325" d="M53.036,28.145c-1.829-1.394-3.872-1.544-4.666-1.544c-1.533,0-3.074,0.435-4.455,1.257
				c-0.646,0.383-1.234,0.853-1.753,1.399l-0.009-1.005c0-0.888-0.736-1.609-1.642-1.609h-0.145c-0.905,0-1.642,0.722-1.642,1.609
				v18.859c0,0.889,0.736,1.611,1.641,1.611h0.145c0.896,0,1.628-0.709,1.642-1.591l0.01-11.659c0-0.746,0.033-1.227,0.212-1.748
				c0.856-2.356,3.097-4,5.448-4c4.228,0,4.859,3.834,4.859,6.12l0.009,11.268c0,0.894,0.736,1.611,1.641,1.611h0.145
				c0.906,0,1.642-0.723,1.642-1.611V35.639C56.117,32.227,55.08,29.705,53.036,28.145z"/>
			<path fill="#E75325" d="M11.141,27.857c-0.646,0.383-1.234,0.853-1.752,1.399l-0.01-1.005c0-0.888-0.736-1.609-1.641-1.609H7.593
				c-0.905,0-1.642,0.722-1.642,1.609v18.86c0,0.888,0.736,1.609,1.642,1.609h0.145c0.896,0,1.628-0.711,1.641-1.591l0.01-11.659
				c0-0.746,0.033-1.226,0.212-1.748c0.856-2.355,3.096-4,5.448-4c0.529,0,1,0.061,1.422,0.169v-3.24
				c-0.361-0.042-0.663-0.054-0.874-0.054C14.063,26.601,12.522,27.035,11.141,27.857z"/>
		</g>
		<path fill="#4B4B4A" d="M149.303,52.902c0.586,0,1.106,0.117,1.547,0.349l0.146,0.075l0.395-1.312l-0.097-0.052
			c-0.36-0.196-1.104-0.426-1.985-0.426c-2.49,0-4.23,1.728-4.23,4.2c0,2.41,1.58,4.027,3.934,4.027c0.957,0,1.791-0.234,2.25-0.453
			l0.094-0.043l-0.293-1.306l-0.146,0.062c-0.396,0.178-0.897,0.354-1.649,0.354c-1.506,0-2.521-1.094-2.521-2.726
			C146.736,54.288,147.529,52.902,149.303,52.902z"/>
		<path fill="#4B4B4A" d="M156.387,51.537c-2.307,0-3.918,1.721-3.918,4.186c0,2.396,1.561,4.062,3.793,4.062h0.016
			c1.892,0,3.916-1.312,3.916-4.2C160.193,53.199,158.628,51.537,156.387,51.537z M156.309,58.479c-1.25,0-2.156-1.18-2.156-2.804
			c0-1.411,0.687-2.835,2.203-2.835c1.481,0,2.156,1.446,2.156,2.788C158.512,57.279,157.591,58.479,156.309,58.479z"/>
		<path fill="#4B4B4A" d="M170.048,51.537c-0.708,0-1.231,0.168-1.751,0.562c-0.324,0.239-0.584,0.521-0.788,0.838
			c-0.407-0.871-1.224-1.399-2.179-1.399c-0.995,0-1.782,0.399-2.348,1.19l-0.053-1.021h-1.479l0.007,0.143
			c0.031,0.614,0.062,1.258,0.062,2.062v5.698h1.621V54.87c0-0.242,0.029-0.455,0.104-0.638c0.197-0.625,0.781-1.297,1.595-1.297
			c0.915,0,1.464,0.729,1.464,1.946v4.728h1.618v-4.863c0-0.2,0.038-0.439,0.104-0.648c0.203-0.535,0.728-1.16,1.533-1.16
			c1.26,0,1.521,1.207,1.521,2.224v4.448h1.619v-4.627C172.704,52.441,171.332,51.537,170.048,51.537z"/>
		<path fill="#4B4B4A" d="M183.699,57.646V54.79c0-1.483-0.529-3.254-3.051-3.254c-0.939,0-1.91,0.255-2.594,0.683l-0.093,0.055
			l0.404,1.192l0.146-0.096c0.504-0.341,1.228-0.546,1.961-0.546c1.043,0,1.569,0.551,1.569,1.636v0.026
			c-2.961,0.016-4.591,1.068-4.591,2.972c0,1.155,0.852,2.323,2.466,2.323c1.062,0,1.849-0.479,2.286-0.988l0.104,0.816h1.52
			l-0.021-0.151C183.736,58.986,183.699,58.359,183.699,57.646z M179.99,56.029c0.478-0.213,1.148-0.32,1.996-0.32
			c0.031,0,0.062,0,0.093,0v1.195c0,0.152-0.021,0.291-0.056,0.4c-0.188,0.549-0.76,1.188-1.752,1.188
			c-0.729,0-1.164-0.446-1.164-1.194C179.107,56.709,179.396,56.294,179.99,56.029z"/>
		<path fill="#4B4B4A" d="M191.843,59.466c-0.043-0.541-0.063-1.204-0.063-2.087V51.71h-1.646v4.802c0,0.246-0.042,0.48-0.112,0.662
			c-0.226,0.551-0.806,1.195-1.707,1.195c-1.062,0-1.572-0.758-1.572-2.312v-4.346h-1.651v4.598c0,3.135,1.935,3.479,2.767,3.479
			c1.332,0,2.096-0.729,2.445-1.194l0.064,1.02h1.496L191.843,59.466z"/>
	</g>
</g>
<g id="TT" display="none">
	<path display="inline" fill="#79CEDB" d="M24.53,44.29c-0.907,0-1.649-0.742-1.649-1.649V18.334c0-0.908,0.742-1.65,1.649-1.65
		h1.776c0.908,0,1.65,0.742,1.65,1.65v24.307c0,0.906-0.742,1.648-1.65,1.648L24.53,44.29L24.53,44.29z"/>
	<path display="inline" fill="#F49AC1" d="M63.873,44.29c-0.907,0-1.649-0.742-1.649-1.649V18.334c0-0.908,0.742-1.65,1.649-1.65
		h1.776c0.908,0,1.65,0.742,1.65,1.65v24.307c0,0.906-0.742,1.648-1.65,1.648L63.873,44.29L63.873,44.29z"/>
	<g display="inline">
		<path d="M130.131,60.001c-0.502,0-0.874-0.458-0.852-0.983c0-0.562,0.371-0.979,0.896-0.979c0.524,0,0.873,0.415,0.873,0.979
			c0,0.524-0.349,0.983-0.895,0.983H130.131z"/>
		<path d="M140.898,59.303c-0.459,0.217-1.551,0.676-3.08,0.676c-3.014,0-5.023-2.205-5.023-5.351c0-3.341,2.271-5.591,5.395-5.591
			c1.289,0,2.359,0.371,2.752,0.654l-0.371,0.853c-0.502-0.306-1.309-0.612-2.467-0.612c-2.813,0-4.26,2.146-4.26,4.609
			c0,2.752,1.727,4.543,4.15,4.543c1.244,0,2.053-0.35,2.621-0.611L140.898,59.303z"/>
		<path d="M147.342,60.001c-2.708,0-4.805-2.119-4.805-5.396c0-3.582,2.359-5.568,4.958-5.568c2.905,0,4.871,2.184,4.871,5.395
			c0,3.889-2.687,5.569-5.003,5.569H147.342z M147.408,59.127c2.184,0,3.908-1.965,3.908-4.652c0-1.922-1.069-4.562-3.844-4.562
			c-2.688,0-3.893,2.381-3.893,4.63c0,2.621,1.66,4.586,3.8,4.586L147.408,59.127L147.408,59.127z"/>
		<path d="M155.029,51.789c0-0.961-0.021-1.682-0.086-2.512h0.979l0.062,1.834h0.047c0.677-1.201,1.682-2.075,3.402-2.075
			c1.44,0,2.56,0.96,3.019,2.271h0.043c0.282-0.611,0.677-1.092,1.065-1.42c0.682-0.546,1.377-0.852,2.489-0.852
			c1.026,0,3.431,0.568,3.431,4.543v6.181h-1.049v-6.094c0-2.358-0.916-3.756-2.729-3.756c-1.312,0-2.337,0.981-2.752,2.075
			c-0.089,0.306-0.177,0.654-0.177,1.049v6.727h-1.049v-6.574c0-1.877-0.896-3.271-2.601-3.271c-1.396,0-2.513,1.136-2.903,2.354
			c-0.086,0.311-0.152,0.654-0.152,1.025v6.465h-1.049v-7.971H155.029z"/>
		<path d="M173.182,60.001c-0.502,0-0.875-0.458-0.853-0.983c0-0.562,0.372-0.979,0.896-0.979c0.524,0,0.875,0.415,0.875,0.979
			c0,0.524-0.351,0.983-0.896,0.983H173.182z"/>
		<path d="M183.249,57.271c0,0.83,0.022,1.682,0.153,2.485h-0.961l-0.153-1.508h-0.043c-0.524,0.812-1.683,1.747-3.364,1.747
			c-2.117,0-3.078-1.48-3.078-2.885c0-2.428,2.117-3.891,6.398-3.848V52.99c0-1.026-0.197-3.102-2.688-3.08
			c-0.916,0-1.882,0.24-2.646,0.785l-0.327-0.764c0.961-0.639,2.144-0.896,3.08-0.896c3.034,0,3.625,2.271,3.625,4.128
			L183.249,57.271L183.249,57.271z M182.201,54.148c-2.294-0.065-5.309,0.283-5.309,2.795c0,1.507,1.006,2.184,2.098,2.184
			c1.746,0,2.752-1.07,3.102-2.098c0.088-0.219,0.109-0.457,0.109-0.633V54.148z"/>
		<path d="M194.716,57.205c0,0.918,0.022,1.748,0.089,2.557h-0.984l-0.062-1.88h-0.043c-0.521,0.983-1.729,2.119-3.582,2.119
			c-1.333,0-3.581-0.677-3.581-4.63v-6.094h1.053v5.896c0,2.271,0.694,3.91,2.771,3.91c1.525,0,2.646-1.069,3.104-2.119
			c0.104-0.327,0.191-0.741,0.191-1.157v-6.529h1.051L194.716,57.205L194.716,57.205z"/>
	</g>
	<path display="inline" d="M17.803,42.395l-0.051-0.142c-0.161-0.45-0.635-0.707-1.102-0.626l-0.279,0.08
		c-0.682,0.188-1.634,0.32-2.894,0.32c-2.942,0-4.038-2.191-4.038-5.711V18.855h7.902v-2.249H9.44v-4.212v-1.805v-0.097H9.435
		c-0.05-0.662-0.606-1.188-1.28-1.188H7.956c-0.674,0-1.229,0.526-1.279,1.188H6.672v0.097v1.805v4.212H2v2.249h4.672v16.942
		c0,2.826,0.461,5.191,1.73,6.633c1.038,1.271,2.71,1.903,4.729,1.903c1.673,0,2.942-0.289,3.865-0.636l0,0l0.2-0.068
		C17.708,43.452,17.982,42.896,17.803,42.395z"/>
	<path display="inline" d="M88.363,42.395l-0.05-0.142c-0.161-0.45-0.636-0.707-1.102-0.626l-0.278,0.08
		c-0.682,0.188-1.634,0.32-2.895,0.32c-2.941,0-4.038-2.191-4.038-5.711V18.855h7.902v-2.249H80v-4.212v-1.805v-0.097h-0.005
		c-0.05-0.662-0.605-1.188-1.28-1.188h-0.199c-0.673,0-1.229,0.526-1.279,1.188h-0.005v0.097v1.805v4.212h-4.671v2.249h4.671v16.942
		c0,2.826,0.461,5.191,1.73,6.633c1.038,1.271,2.71,1.903,4.729,1.903c1.672,0,2.941-0.289,3.864-0.636l0,0l0.2-0.068
		C88.268,43.452,88.542,42.896,88.363,42.395z"/>
	<path display="inline" d="M46.611,15.971c-4.388,0-7.842,2.36-9.401,5.366v-2.251v-1.805v-0.097h-0.005
		c-0.05-0.661-0.605-1.187-1.279-1.187h-0.199c-0.674,0-1.229,0.526-1.279,1.187h-0.005v0.097v1.805v2.475v1.081v15.447v3.556v0.242
		v1.12v0.097h0.005c0.05,0.662,0.605,1.188,1.279,1.188h0.199c0.674,0,1.229-0.526,1.279-1.188h0.005v-0.097v-1.12l0,0V27.103
		c0-0.866,0.173-1.788,0.346-2.422c1.096-3.633,4.441-6.402,8.305-6.402c5.709,0,7.671,4.557,7.671,9.632V38.09v3.557v0.24v1.121
		v0.098h0.005c0.05,0.662,0.605,1.188,1.279,1.188h0.2c0.673,0,1.229-0.524,1.279-1.188H56.3v-0.098v-1.121v-0.24V38.09V27.68
		C56.301,17.297,49.265,15.971,46.611,15.971z"/>
	<path display="inline" d="M107.444,15.971c-4.388,0-7.842,2.359-9.401,5.366v-2.25v-1.805v-0.097h-0.005
		c-0.05-0.661-0.606-1.187-1.279-1.187h-0.2c-0.674,0-1.229,0.526-1.279,1.187h-0.005v0.097v1.805v2.475v1.081v15.001l0,0v3.557
		v1.805v0.098h0.005c0.05,0.66,0.605,1.188,1.279,1.188h0.2c0.673,0,1.229-0.524,1.279-1.188h0.005v-0.098v-0.268l0,0V27.103
		c0-0.866,0.173-1.788,0.346-2.422c1.096-3.633,4.441-6.402,8.305-6.402c0.272,0,0.534,0.014,0.789,0.034v-2.341
		C107.47,15.971,107.456,15.971,107.444,15.971z"/>
	<path display="inline" d="M204.178,15.971c-4.389,0-7.843,2.359-9.402,5.366v-2.25v-1.805v-0.097h-0.004
		c-0.051-0.661-0.604-1.187-1.274-1.187h-0.2c-0.674,0-1.229,0.526-1.273,1.187h-0.008v0.097v1.805v2.475v1.081v15.001l0,0v3.557
		v1.805v0.098h0.008c0.049,0.66,0.604,1.188,1.273,1.188h0.2c0.673,0,1.229-0.524,1.274-1.188h0.004v-0.098v-0.268l0,0V27.103
		c0-0.866,0.179-1.788,0.352-2.422c1.1-3.633,4.438-6.402,8.311-6.402c0.271,0,0.528,0.014,0.787,0.034v-2.341
		C204.203,15.971,204.189,15.971,204.178,15.971z"/>
	<path display="inline" d="M158.391,5.09V3.285c0-0.707-0.578-1.284-1.285-1.284h-0.194c-0.705,0-1.283,0.576-1.284,1.282h-0.006
		v17.591h-0.12c-1.211-2.422-4.269-4.902-9.056-4.902c-6.807,0-12.516,5.768-12.459,14.995c0,8.248,5.076,13.958,11.938,13.958
		c4.944,0,8.177-2.622,9.695-5.547v2.254v1.806v0.102h0.005c0.051,0.656,0.604,1.188,1.277,1.188h0.201
		c0.672,0,1.229-0.526,1.275-1.188h0.008v-0.102v-1.806v-3.555h-0.008V5.198C158.387,5.163,158.391,5.126,158.391,5.09z
		 M155.616,33.102c0,0.865-0.058,1.614-0.289,2.312c-1.153,4.558-4.902,7.209-8.882,7.209c-6.574,0-9.689-5.711-9.689-11.939
		c0-7.152,3.807-12.4,9.863-12.4c4.499,0,7.785,3.057,8.708,6.749c0.231,0.807,0.289,1.788,0.289,2.538V33.102z"/>
	<path display="inline" d="M119.914,15.971c-2.48,0-5.595,0.692-8.133,2.365l0.865,2.019c2.019-1.442,4.556-2.077,6.979-2.077
		c6.575-0.057,7.094,5.422,7.094,8.133v0.75c-11.304-0.116-16.899,3.749-16.899,10.151c0,3.688,2.538,7.607,8.133,7.607
		c4.322,0,7.333-2.354,8.767-4.438v2.957c0,0.705,0.578,1.283,1.284,1.283h0.199c0.707,0,1.285-0.578,1.285-1.283v-5.729v-1.896
		v-8.94C129.488,21.969,127.931,15.971,119.914,15.971z M126.719,35.408c0,0.461-0.058,1.096-0.288,1.672
		c-0.923,2.711-3.576,5.537-8.19,5.537c-2.884,0-5.537-1.788-5.537-5.768c0-6.639,7.959-7.562,14.015-7.388V35.408z"/>
	<path display="inline" d="M187.006,28.487c0-3.98-1.73-12.516-10.785-12.516c-7.152,0-12.459,5.768-12.459,14.995
		c0,8.134,4.961,13.899,12.92,13.899c4.146,0,6.688-0.83,8.021-1.447v-0.006c0.486-0.24,0.725-0.811,0.529-1.316l-0.062-0.152
		c-0.206-0.532-0.818-0.805-1.365-0.594l-0.875,0.326c-1.382,0.465-3.201,0.826-5.904,0.826c-5.709,0-10.555-3.518-10.555-12.342
		h20.418C187.006,29.64,187.006,29.236,187.006,28.487z M184.122,27.968h-17.476c0.52-4.268,3.115-9.69,9.229-9.69
		C182.564,18.278,184.18,24.104,184.122,27.968z"/>
	<path display="inline" fill="#79CEDB" d="M25.367,11.403c-1.846,0-3.057-1.442-3.057-3.115c0-1.788,1.269-3.172,3.172-3.172
		c1.846,0,3.115,1.384,3.115,3.172c0,1.673-1.211,3.115-3.172,3.115H25.367z"/>
	<path display="inline" fill="#F49AC1" d="M64.71,11.403c-1.845,0-3.057-1.442-3.057-3.115c0-1.788,1.269-3.172,3.172-3.172
		c1.845,0,3.114,1.384,3.114,3.172c0,1.673-1.211,3.115-3.172,3.115H64.71z"/>
</g>
<g id="NZ" display="none">
	<g display="inline">
		<path d="M165.868,57.611h1.36l-0.354,2.188h-2.2l0.219-1.354C164.982,57.891,165.309,57.611,165.868,57.611z"/>
		<path d="M174.883,56.536h2c-0.474,1.114-1.171,1.965-2.091,2.549c-0.926,0.61-2.015,0.916-3.269,0.916
			c-1.521,0-2.629-0.491-3.323-1.474c-0.7-0.955-0.905-2.322-0.618-4.104c0.273-1.696,0.9-3.024,1.882-3.981
			c1.013-0.979,2.278-1.475,3.798-1.475c1.604,0,2.764,0.479,3.49,1.436c0.387,0.584,0.623,1.264,0.713,2.031h-2.801
			c-0.091-0.268-0.191-0.467-0.305-0.6c-0.285-0.372-0.75-0.561-1.389-0.561c-0.593,0-1.104,0.188-1.531,0.561
			c-0.565,0.532-0.946,1.408-1.146,2.628c-0.195,1.224-0.095,2.085,0.305,2.589c0.275,0.428,0.764,0.639,1.459,0.639
			c0.451,0,0.854-0.092,1.205-0.275c0.084-0.023,0.162-0.073,0.24-0.143c0.077-0.063,0.162-0.142,0.255-0.221
			c0.066-0.078,0.188-0.188,0.371-0.318C174.312,56.602,174.562,56.536,174.883,56.536z"/>
		<path d="M178.994,58.846c-0.482-0.479-0.78-1.123-0.891-1.933c-0.108-0.81-0.092-1.653,0.049-2.528
			c0.117-0.718,0.33-1.435,0.646-2.152c0.315-0.715,0.728-1.312,1.229-1.791c0.822-0.797,1.791-1.269,2.908-1.414
			c1.119-0.146,2.09-0.061,2.92,0.264c0.949,0.396,1.584,1.089,1.906,2.066c0.311,0.875,0.375,1.898,0.186,3.066
			c-0.137,0.85-0.348,1.58-0.633,2.189c-0.285,0.611-0.608,1.13-0.976,1.555c-0.776,0.876-1.683,1.42-2.7,1.633
			c-0.918,0.239-1.812,0.26-2.668,0.061C180.107,59.662,179.45,59.322,178.994,58.846z M182.044,51.835
			c-0.657,0.61-1.06,1.521-1.2,2.729c-0.142,1.207-0.051,2.051,0.271,2.524c0.126,0.218,0.377,0.396,0.753,0.537
			c0.377,0.146,0.782,0.159,1.214,0.04c0.434-0.12,0.848-0.418,1.245-0.896s0.694-1.248,0.894-2.312
			c0.153-0.956,0.115-1.673-0.113-2.146c-0.229-0.479-0.529-0.783-0.912-0.918c-0.379-0.131-0.773-0.143-1.192-0.021
			C182.579,51.497,182.262,51.65,182.044,51.835z"/>
		<path d="M188.714,57.611h1.36l-0.354,2.188h-2.201l0.219-1.354C187.829,57.891,188.154,57.611,188.714,57.611z"/>
		<path d="M199.807,59.801h-1.396c-0.399,0-0.707-0.126-0.925-0.378c-0.213-0.251-0.281-0.577-0.223-0.976l0.873-5.418
			c0.104-0.637-0.015-1.104-0.354-1.396c-0.34-0.291-0.75-0.438-1.229-0.438c-0.48,0-0.937,0.146-1.354,0.438
			c-0.425,0.293-0.685,0.76-0.785,1.396l-1.093,6.771h-2.803l1.002-6.214c0.291-1.807,0.959-3.014,2.004-3.625
			c1.047-0.609,2.146-0.941,3.305-0.995c1.174,0,2.204,0.306,3.093,0.916c0.892,0.611,1.187,1.847,0.886,3.704L199.807,59.801z"/>
		<path d="M200.968,59.801l0.341-2.111l6.736-6.293h-4.041c-0.374,0-0.674-0.125-0.898-0.377c-0.228-0.252-0.31-0.562-0.25-0.937
			L203,49.207h8.725l-0.367,2.271l-6.607,6.014h5.841l-0.373,2.311h-9.239v-0.002H200.968z"/>
	</g>
	<path display="inline" d="M22.293,27.441c-1.33-2.169-3.31-3.253-5.935-3.253c-1.453,0-2.726,0.279-3.819,0.834
		c-1.28,0.667-2.312,1.53-3.094,2.586l1.062-6.675c0.123-0.778-0.051-1.445-0.52-2.002c-0.47-0.555-1.097-0.834-1.878-0.834H5.26
		L2.22,37.205c-0.629,3.949,0.09,6.619,2.161,8.01C6.45,46.604,8.825,47.3,11.509,47.3c1.394,0,2.845-0.237,4.344-0.708
		c1.5-0.473,2.752-1.238,3.76-2.295c2.02-2.169,3.305-4.979,3.854-8.426C24.016,32.423,23.625,29.611,22.293,27.441z M17.724,35.619
		c-0.353,2.225-1.043,3.921-2.066,5.089c-1.024,1.168-2.318,1.752-3.883,1.752c-1.508,0-2.589-0.584-3.241-1.752
		C7.92,39.652,7.8,37.956,8.171,35.619c0.317-2.003,0.989-3.588,2.014-4.755c1.014-1.112,2.304-1.669,3.869-1.669
		c1.452,0,2.505,0.584,3.157,1.752C17.871,32.061,18.043,33.616,17.724,35.619z"/>
	<path display="inline" d="M33.521,21.018c0.123-0.779-0.051-1.447-0.52-2.003c-0.471-0.555-1.097-0.834-1.879-0.834h-3.016
		l-0.731,4.589h5.866L33.521,21.018z"/>
	<path display="inline" d="M31.966,25.523c-0.471-0.556-1.097-0.835-1.878-0.835H27.07l-3.53,22.194h5.867l3.08-19.357
		C32.609,26.747,32.435,26.08,31.966,25.523z"/>
	<path display="inline" d="M55.772,24.688h-7.04l-8.424,8.175l1.301-8.175l0.598-3.754c0.115-0.723-0.063-1.363-0.533-1.919
		c-0.471-0.555-1.098-0.834-1.878-0.834h-3.017l-4.565,28.702h5.865l0.85-5.34l0.492-3.088c0.071-0.443,0.43-0.777,1.081-1
		c0.649-0.223,1.275,0.417,1.874,1.919l2.912,7.509h7.04l-5.869-13.684L55.772,24.688z"/>
	<path display="inline" fill="#ED1C24" d="M68.391,40.04h4.189c-0.986,2.337-2.444,4.118-4.37,5.34
		c-1.936,1.28-4.216,1.92-6.841,1.92c-3.185,0-5.508-1.028-6.968-3.086c-1.471-2.003-1.908-4.868-1.315-8.594
		c0.566-3.56,1.875-6.341,3.926-8.344c2.114-2.058,4.765-3.086,7.949-3.086c3.354,0,5.792,1,7.317,3.003
		c1.459,2.058,1.898,4.922,1.313,8.595c-0.035,0.224-0.065,0.417-0.092,0.584c-0.027,0.166-0.045,0.278-0.054,0.333
		c-0.044,0.277-0.104,0.473-0.176,0.584H58.772c-0.22,1.725-0.004,3.002,0.647,3.837c0.583,0.892,1.602,1.335,3.055,1.335
		c0.948,0,1.791-0.193,2.522-0.584c0.177-0.055,0.346-0.152,0.508-0.292c0.161-0.138,0.34-0.292,0.535-0.459
		c0.081-0.167,0.326-0.388,0.733-0.666C67.181,40.18,67.72,40.04,68.391,40.04z M59.369,33.533h8.548
		c0.127-1.502-0.087-2.614-0.641-3.337c-0.604-0.779-1.575-1.169-2.916-1.169c-1.229,0-2.298,0.39-3.204,1.169
		C60.25,30.975,59.654,32.086,59.369,33.533z"/>
	<path display="inline" fill="#ED1C24" d="M101.791,40.04h4.19c-0.988,2.337-2.443,4.118-4.37,5.34
		c-1.937,1.28-4.217,1.92-6.842,1.92c-3.185,0-5.508-1.028-6.967-3.086c-1.47-2.003-1.908-4.868-1.315-8.594
		c0.566-3.56,1.874-6.341,3.926-8.344c2.114-2.058,4.765-3.086,7.949-3.086c3.352,0,5.792,1,7.317,3.003
		c1.458,2.058,1.899,4.922,1.313,8.595c-0.036,0.224-0.066,0.417-0.093,0.584c-0.026,0.166-0.045,0.278-0.053,0.333
		c-0.044,0.277-0.104,0.473-0.177,0.584H92.171c-0.219,1.725-0.003,3.002,0.647,3.837c0.584,0.892,1.602,1.335,3.057,1.335
		c0.948,0,1.79-0.193,2.522-0.584c0.177-0.055,0.346-0.152,0.507-0.292c0.16-0.138,0.341-0.292,0.534-0.459
		c0.083-0.167,0.327-0.388,0.735-0.666C100.582,40.18,101.119,40.04,101.791,40.04z M92.77,33.533h8.547
		c0.127-1.502-0.086-2.614-0.642-3.337c-0.603-0.779-1.574-1.169-2.915-1.169c-1.229,0-2.297,0.39-3.203,1.169
		C93.65,30.975,93.053,32.086,92.77,33.533z"/>
	<path display="inline" d="M131.009,22.686h-5.028c-1.174,0-2.091,0.5-2.752,1.502l-5.417,7.174l-2.792-6.674h-6.454l5.161,10.764
		l-9.11,11.43h6.789l5.221-7.008l2.824,7.008h6.704l-5.569-11.347L131.009,22.686z"/>
	<path display="inline" d="M142.286,40.04c-0.669,0-1.193,0.14-1.575,0.419c-0.378,0.277-0.639,0.5-0.775,0.666
		c-0.188,0.167-0.373,0.32-0.533,0.459c-0.157,0.141-0.332,0.238-0.508,0.292c-0.729,0.392-1.574,0.584-2.521,0.584
		c-1.453,0-2.476-0.444-3.058-1.335c-0.84-1.055-1.053-2.863-0.646-5.422c0.408-2.559,1.202-4.394,2.389-5.506
		c0.901-0.779,1.976-1.169,3.198-1.169c1.345,0,2.312,0.39,2.916,1.169c0.235,0.278,0.447,0.695,0.642,1.251h5.867
		c-0.188-1.613-0.69-3.031-1.502-4.255c-1.525-2.003-3.967-3.003-7.313-3.003c-3.188,0-5.837,1.029-7.95,3.086
		c-2.051,2.002-3.358,4.785-3.925,8.344c-0.593,3.728-0.155,6.591,1.315,8.594c1.459,2.058,3.782,3.086,6.965,3.086
		c2.625,0,4.902-0.64,6.845-1.92c1.926-1.222,3.382-3.003,4.364-5.34H142.286z"/>
	<path display="inline" d="M155.361,35.452c0.309-1.947,0.971-3.476,1.986-4.589c1.018-1.112,2.305-1.669,3.864-1.669
		c1.453,0,2.511,0.584,3.158,1.752c0.394,0.724,0.601,1.433,0.625,2.126c0.022,0.697-0.021,1.461-0.149,2.296l-1.832,11.514h5.609
		l2.062-12.933c0.4-2.557,0.188-4.56-0.642-6.006c-0.833-1.447-1.979-2.504-3.438-3.171c-1.565-0.668-3.312-0.779-5.228-0.334
		c-1.916,0.446-3.508,1.502-4.778,3.17l1.049-6.591c0.125-0.779-0.049-1.447-0.521-2.003c-0.471-0.555-1.101-0.834-1.878-0.834
		h-2.85l-4.563,28.702h5.698L155.361,35.452z"/>
	<path display="inline" d="M173.378,45.672c1.337,1.085,3.009,1.627,5.021,1.627c1.006,0,2.183-0.07,3.517-0.209
		s2.64-0.514,3.905-1.127c1.203-0.555,2.312-1.459,3.322-2.711c1.008-1.251,1.69-2.99,2.043-5.215l1.209-7.591
		c0.317-2.003-0.244-3.56-1.688-4.672c-1.396-1.057-3.659-1.585-6.789-1.585c-2.793,0-5.045,0.64-6.758,1.918
		c-1.518,1.114-2.525,2.533-3.021,4.256h5.613c0.377-0.611,0.891-1.029,1.541-1.252c0.648-0.221,1.364-0.333,2.146-0.333
		c0.726,0,1.502,0.125,2.33,0.376c0.819,0.25,1.172,0.792,1.039,1.626c-0.182,1.115-1.521,1.835-4.031,2.169
		c-0.512,0.056-0.971,0.125-1.373,0.207c-0.408,0.084-0.75,0.125-1.025,0.125c-2.179,0.334-4.029,1.002-5.559,2.003
		c-1.528,1.002-2.479,2.671-2.85,5.005C171.574,42.794,172.042,44.588,173.378,45.672z M177.445,40.124
		c0.098-0.612,0.389-1.224,0.877-1.836c0.52-0.444,1.303-0.806,2.354-1.083l1.994-0.417c1.45-0.334,2.596-0.694,3.441-1.085
		l-0.334,2.087c-0.248,1.556-0.889,2.78-1.924,3.669c-1.037,0.891-2.336,1.335-3.898,1.335c-0.952,0-1.643-0.222-2.074-0.668
		C177.459,41.625,177.314,40.958,177.445,40.124z"/>
	<path display="inline" d="M212.159,26.106c-1.867-1.278-4.027-1.918-6.485-1.918c-2.422,0.112-4.725,0.807-6.91,2.085
		c-2.188,1.279-3.58,3.811-4.183,7.592l-2.071,13.017h5.866l2.257-14.185c0.211-1.335,0.756-2.307,1.637-2.919
		c0.879-0.611,1.822-0.918,2.828-0.918s1.864,0.307,2.578,0.918c0.713,0.613,0.963,1.584,0.749,2.919l-1.804,11.348
		c-0.133,0.834,0.023,1.516,0.47,2.044c0.447,0.528,1.091,0.793,1.929,0.793h2.938l2.064-13.017
		C214.641,29.974,214.02,27.387,212.159,26.106z"/>
	<path display="inline" d="M235.195,26.357c-2.062-1.446-4.432-2.169-7.112-2.169c-3.521,0-6.248,1.071-8.179,3.212
		c-1.938,2.142-3.176,4.937-3.725,8.386c-0.475,2.946-0.248,5.325,0.668,7.133c0.914,1.81,2.149,3.044,3.725,3.713
		c1.57,0.667,3.238,0.806,5.004,0.417c1.765-0.389,3.275-1.361,4.527-2.92l-0.229,1.419c-0.396,1.779-1.04,3.112-1.938,4.005
		c-0.896,0.887-1.816,1.43-2.771,1.625c-0.955,0.194-1.854,0.084-2.713-0.334c-0.854-0.416-1.44-1.016-1.771-1.794h-6.117
		c0.47,4.785,3.271,7.177,8.412,7.177c2.685,0,5.277-0.711,7.797-2.127c2.518-1.418,4.084-4.076,4.705-7.969l1.873-11.764
		C237.979,30.474,237.256,27.804,235.195,26.357z M230.928,37.912c-0.433,1.309-0.949,2.268-1.547,2.879
		c-1.292,1.447-3.023,1.961-5.189,1.544c-2.17-0.417-2.942-2.544-2.338-6.382c0.283-1.779,0.871-3.365,1.769-4.757
		c0.894-1.389,2.282-2.085,4.188-2.085c1.396,0,2.379,0.501,2.943,1.502c0.562,1,0.85,2.142,0.838,3.421
		C231.579,35.312,231.357,36.605,230.928,37.912z"/>
	<path display="inline" d="M258.436,26.938c-1.521-2.002-3.963-3.004-7.312-3.004c-3.188,0-5.834,1.03-7.95,3.086
		c-2.051,2.003-3.354,4.785-3.925,8.343c-0.599,3.728-0.155,6.592,1.312,8.594c1.461,2.061,3.782,3.088,6.969,3.088
		c2.625,0,4.906-0.639,6.845-1.919c1.926-1.222,3.383-3.004,4.367-5.339h-4.188c-0.67,0-1.21,0.141-1.613,0.417
		c-0.408,0.278-0.651,0.5-0.733,0.667c-0.194,0.168-0.373,0.32-0.534,0.459c-0.163,0.141-0.331,0.236-0.509,0.293
		c-0.731,0.389-1.573,0.583-2.522,0.583c-1.451,0-2.471-0.444-3.055-1.336c-0.652-0.834-0.865-2.112-0.646-3.837h14.5
		c0.07-0.11,0.131-0.305,0.174-0.584c0.014-0.055,0.027-0.168,0.059-0.334c0.023-0.168,0.062-0.361,0.098-0.584
		C260.333,31.859,259.896,28.996,258.436,26.938z M254.075,33.277h-8.548c0.285-1.444,0.88-2.556,1.787-3.336
		c0.899-0.778,1.975-1.169,3.203-1.169c1.342,0,2.312,0.391,2.916,1.169C253.986,30.665,254.201,31.775,254.075,33.277z"/>
	<path display="inline" fill="#ED1C24" d="M89.135,12.655c5.732-0.992,5.439-12.15-2.107-10.486
		C79.44,3.841,83.32,13.662,89.135,12.655z"/>
	<path display="inline" fill="#ED1C24" d="M91.465,25.014c-2.692-3.559-7.033-4.884-8.955-9.438
		c-0.89-2.108-0.533-7.232-2.143-8.087V7.485c-0.204-0.138-0.561-0.264-0.561-0.264c-6.534-2.222-15.504,0.402-16.588,7.25
		c0.006,0.004,0.014,0.008,0.02,0.012c-0.604,4.572,9.686,7.495,12.442,12.044c2.888,4.762,0.263,9.477-2.105,15.206
		c4.66-3.685,11.034-9.229,9.481-16.25c-0.621-2.796-5.097-6.961-9.614-9.862c1.036-0.437,2.034-0.992,2.946-1.636
		C77.955,19.33,86.784,24.533,91.465,25.014z"/>
</g>
<g>
	<g>
		<polygon fill="#1D1D1B" points="12.377,16.484 6.335,16.484 6.335,2.648 0.333,2.648 0.333,36.798 6.335,36.798 6.335,21.737 
			12.377,21.737 12.377,36.798 18.384,36.798 18.384,2.648 12.377,2.648 		"/>
		<path fill="#1D1D1B" d="M35.241,2.179c-6.656,0-9.03,4.542-9.03,8.792v17.506c0,4.249,2.374,8.79,9.03,8.79
			c6.652,0,9.022-4.541,9.022-8.79V10.971C44.263,6.721,41.893,2.179,35.241,2.179z M32.218,11.11c0-2.647,0.846-3.679,3.023-3.679
			c2.171,0,3.019,1.031,3.019,3.679v17.224c0,2.648-0.848,3.681-3.019,3.681c-2.177,0-3.023-1.032-3.023-3.681V11.11z"/>
		<path fill="#1D1D1B" d="M64.14,28.382c0,2.479-0.961,3.633-3.021,3.633c-2.06,0-3.023-1.154-3.023-3.633V2.648h-6.003v25.497
			c0,5.796,3.289,9.121,9.026,9.121c5.734,0,9.027-3.325,9.027-9.121V2.648H64.14V28.382z"/>
		<path fill="#1D1D1B" d="M87.626,17.35c-2.613-2.224-4.873-4.143-4.873-6.663c0-2.1,1.007-3.255,2.834-3.255
			c0.817,0,2.751,0.359,3.019,3.685l0.008,0.09l5.725-0.632l-0.01-0.085c-0.552-5.125-3.684-8.311-8.176-8.311
			c-5.798,0-9.122,3.118-9.122,8.554c0,5.359,3.602,8.361,6.778,11.01c2.613,2.178,5.08,4.237,5.08,7.252
			c0,1.892-1.235,3.021-3.303,3.021c-1.941,0-3.179-1.841-3.396-5.052l-0.008-0.091l-5.644,0.814l-0.077,0.01l0.003,0.078
			c0.22,4.726,3.038,9.492,8.839,9.492c5.74,0,9.308-3.366,9.308-8.79C94.614,23.291,90.903,20.134,87.626,17.35z"/>
		<polygon fill="#1D1D1B" points="107.222,21.737 114.752,21.737 114.752,16.484 107.222,16.484 107.222,7.902 117.01,7.902 
			117.01,2.648 101.217,2.648 101.217,36.798 117.67,36.798 117.67,31.543 107.222,31.543 		"/>
		<polygon fill="#1D1D1B" points="174.398,16.484 168.355,16.484 168.355,2.648 162.352,2.648 162.352,36.798 168.355,36.798 
			168.355,21.737 174.398,21.737 174.398,36.798 180.404,36.798 180.404,2.648 174.398,2.648 		"/>
		<path fill="#1D1D1B" d="M197.258,2.179c-6.656,0-9.027,4.542-9.027,8.792v17.506c0,4.249,2.371,8.79,9.027,8.79
			s9.025-4.541,9.025-8.79V10.971C206.283,6.721,203.914,2.179,197.258,2.179z M194.238,11.11c0-2.647,0.846-3.679,3.02-3.679
			s3.02,1.031,3.02,3.679v17.224c0,2.648-0.846,3.681-3.02,3.681s-3.02-1.032-3.02-3.681V11.11z"/>
		<polygon fill="#1D1D1B" points="225.725,22.403 221.617,2.717 221.605,2.648 213.783,2.648 213.783,36.798 219.033,36.798 
			219.033,10.559 224.232,36.728 224.246,36.798 227.207,36.798 232.414,10.559 232.414,36.798 237.672,36.798 237.672,2.648 
			229.842,2.648 		"/>
		<polygon fill="#1D1D1B" points="251.221,31.543 251.221,21.737 258.75,21.737 258.75,16.484 251.221,16.484 251.221,7.902 
			261.01,7.902 261.01,2.648 245.215,2.648 245.215,36.798 261.668,36.798 261.668,31.543 		"/>
		<path fill="#1D1D1B" d="M133.178,29.28c4.025,0,5.459-2.749,5.459-5.32V13.371c0-2.571-1.434-5.318-5.459-5.318
			c-4.026,0-5.461,2.747-5.461,5.318V23.96C127.716,26.531,129.151,29.28,133.178,29.28z M135.008,23.877
			c0,1.601-0.514,2.226-1.83,2.226s-1.828-0.625-1.828-2.226V13.456c0-1.603,0.511-2.226,1.828-2.226s1.83,0.623,1.83,2.226V23.877z
			"/>
		<polygon fill="#1D1D1B" points="143.379,28.994 147.014,28.994 147.014,19.883 151.738,19.883 151.738,16.708 147.014,16.708 
			147.014,11.515 153.334,11.515 153.334,8.338 143.379,8.338 		"/>
		<rect x="128.343" y="33.596" fill="#1D1D1B" width="23.79" height="3.114"/>
	</g>
	<g>
		<g>
			<path fill="#1D1D1B" d="M47.074,46.963v9.693h-1.924v-9.693h-3.607v-1.729h9.153v1.729H47.074z"/>
			<path fill="#1D1D1B" d="M60.641,51.255v5.401h-1.876v-4.88c0-1.306-0.784-2.104-2.091-2.104
				c-1.549,0.016-2.479,1.174-2.479,2.709v4.274h-1.877V44.548h1.877v5.125c0.621-1.225,1.731-1.764,3.214-1.764
				C59.435,47.909,60.641,49.184,60.641,51.255z"/>
			<path fill="#1D1D1B" d="M70.795,53.034h-6.559c0.292,1.338,1.322,2.17,2.69,2.17c0.948,0,1.813-0.359,2.448-1.011l0.996,1.059
				c-0.848,0.931-2.088,1.47-3.59,1.47c-2.676,0-4.438-1.779-4.438-4.389c0-2.628,1.81-4.407,4.389-4.424
				C69.785,47.909,71.024,49.899,70.795,53.034z M69.164,51.662c-0.065-1.402-0.996-2.252-2.415-2.252
				c-1.373,0-2.335,0.866-2.547,2.252H69.164z"/>
			<path fill="#1D1D1B" d="M74.637,49.705c0.589-1.175,1.632-1.796,3.003-1.796v1.796c-1.747-0.098-2.857,0.93-3.003,2.414v4.537
				H72.76v-8.682h1.877V49.705z"/>
			<path fill="#1D1D1B" d="M86.831,53.034H80.27c0.295,1.338,1.323,2.17,2.693,2.17c0.945,0,1.812-0.359,2.45-1.011l0.994,1.059
				c-0.849,0.931-2.088,1.47-3.59,1.47c-2.677,0-4.438-1.779-4.438-4.389c0-2.628,1.81-4.407,4.389-4.424
				C85.82,47.909,87.06,49.899,86.831,53.034z M85.199,51.662c-0.067-1.402-0.996-2.252-2.415-2.252
				c-1.372,0-2.333,0.866-2.546,2.252H85.199z"/>
			<path fill="#1D1D1B" d="M90.181,46.278c0,0.325-0.113,0.587-0.292,0.848l-0.931,1.404h-0.962l0.619-1.404
				c-0.292-0.195-0.44-0.507-0.44-0.848c0-0.621,0.424-1.045,1.013-1.045C89.708,45.233,90.181,45.609,90.181,46.278z"/>
			<path fill="#1D1D1B" d="M97.918,48.772l-0.686,1.39c-0.767-0.474-1.729-0.768-2.496-0.768c-0.734,0-1.274,0.245-1.274,0.865
				c0,1.6,4.619,0.733,4.603,3.884c0,1.778-1.583,2.578-3.328,2.578c-1.274,0-2.626-0.425-3.493-1.207l0.668-1.339
				c0.752,0.669,1.958,1.076,2.905,1.076c0.8,0,1.42-0.276,1.42-0.93c0-1.778-4.57-0.783-4.553-3.917
				c0-1.762,1.534-2.513,3.198-2.513C95.977,47.893,97.136,48.22,97.918,48.772z"/>
			<path fill="#1D1D1B" d="M112.48,51.255v5.401h-1.875v-4.88c0-1.306-0.782-2.104-2.09-2.104c-1.434,0.016-2.333,1.011-2.463,2.365
				v4.618h-1.878v-8.682h1.878v1.665c0.621-1.208,1.729-1.73,3.198-1.73C111.273,47.909,112.48,49.184,112.48,51.255z"/>
			<path fill="#1D1D1B" d="M123.24,52.314c0,2.612-1.843,4.407-4.52,4.407c-2.692,0-4.535-1.795-4.535-4.407
				c0-2.626,1.843-4.405,4.535-4.405C121.397,47.909,123.24,49.688,123.24,52.314z M116.06,52.333c0,1.68,1.094,2.822,2.66,2.822
				c1.551,0,2.645-1.143,2.645-2.822c0-1.665-1.094-2.807-2.645-2.807C117.154,49.526,116.06,50.668,116.06,52.333z"/>
			<path fill="#1D1D1B" d="M138.557,52.35c0,2.593-1.631,4.372-4.113,4.372c-1.387,0-2.432-0.555-3.069-1.566v4.666H129.5V47.975
				h1.875v1.502c0.637-1.012,1.682-1.567,3.038-1.567C136.875,47.909,138.557,49.705,138.557,52.35z M136.662,52.282
				c0-1.614-1.092-2.806-2.641-2.806c-1.553,0-2.647,1.175-2.647,2.806c0,1.682,1.094,2.841,2.647,2.841
				C135.57,55.123,136.662,53.948,136.662,52.282z"/>
			<path fill="#1D1D1B" d="M140.602,56.656V44.548h1.875v12.108H140.602z"/>
			<path fill="#1D1D1B" d="M150.543,55.595c-0.621,0.768-1.617,1.143-2.873,1.143c-1.877,0-3.053-1.158-3.053-2.692
				c0-1.581,1.191-2.595,3.281-2.611h2.629v-0.259c0-1.096-0.703-1.749-2.074-1.749c-0.832,0-1.697,0.296-2.561,0.884l-0.768-1.306
				c1.207-0.719,2.088-1.095,3.736-1.095c2.236,0,3.492,1.143,3.508,3.053l0.018,5.694h-1.844V55.595z M150.527,53.604v-0.798h-2.35
				c-1.225,0-1.797,0.326-1.797,1.158c0,0.782,0.639,1.288,1.68,1.288C149.4,55.252,150.428,54.552,150.527,53.604z"/>
			<path fill="#1D1D1B" d="M162.053,49.33l-1.029,1.206c-0.602-0.618-1.434-0.995-2.479-0.979c-1.502,0-2.578,1.126-2.578,2.775
				c0,1.647,1.076,2.771,2.578,2.771c1.094,0,1.975-0.358,2.561-1.043l1.045,1.043c-0.783,1.029-2.039,1.617-3.688,1.617
				c-2.58,0-4.371-1.779-4.371-4.389c0-2.628,1.791-4.424,4.371-4.424C160.029,47.909,161.254,48.415,162.053,49.33z"/>
			<path fill="#1D1D1B" d="M171.75,53.034h-6.561c0.295,1.338,1.322,2.17,2.693,2.17c0.947,0,1.812-0.359,2.447-1.011l0.998,1.059
				c-0.85,0.931-2.092,1.47-3.59,1.47c-2.678,0-4.441-1.779-4.441-4.389c0-2.628,1.812-4.407,4.389-4.424
				C170.738,47.909,171.979,49.899,171.75,53.034z M170.117,51.662c-0.064-1.402-0.994-2.252-2.414-2.252
				c-1.369,0-2.332,0.866-2.547,2.252H170.117z"/>
			<path fill="#1D1D1B" d="M178.01,56.656V44.548h1.877v12.108H178.01z"/>
			<path fill="#1D1D1B" d="M184.766,45.495c0,0.652-0.471,1.124-1.094,1.124c-0.617,0-1.092-0.472-1.092-1.124
				c0-0.669,0.475-1.143,1.092-1.143C184.295,44.353,184.766,44.826,184.766,45.495z M182.744,56.656v-8.682h1.859v8.682H182.744z"
				/>
			<path fill="#1D1D1B" d="M189.338,54.225v2.432h-1.877V44.548h1.877v7.312l3.836-3.885h2.154l-3.215,3.361l3.459,5.32h-2.221
				l-2.545-3.982L189.338,54.225z"/>
			<path fill="#1D1D1B" d="M204.732,53.034h-6.559c0.293,1.338,1.322,2.17,2.691,2.17c0.947,0,1.812-0.359,2.447-1.011l0.996,1.059
				c-0.85,0.931-2.088,1.47-3.59,1.47c-2.678,0-4.438-1.779-4.438-4.389c0-2.628,1.811-4.407,4.389-4.424
				C203.721,47.909,204.961,49.899,204.732,53.034z M203.102,51.662c-0.066-1.402-0.996-2.252-2.416-2.252
				c-1.371,0-2.334,0.866-2.545,2.252H203.102z"/>
			<path fill="#1D1D1B" d="M212.934,45.495c0,0.652-0.475,1.124-1.096,1.124c-0.619,0-1.094-0.472-1.094-1.124
				c0-0.669,0.475-1.143,1.094-1.143C212.459,44.353,212.934,44.826,212.934,45.495z M210.908,56.656v-8.682h1.863v8.682H210.908z"
				/>
			<path fill="#1D1D1B" d="M220.457,56.102c-0.684,0.408-1.402,0.636-2.137,0.636c-1.305,0-2.434-0.75-2.434-2.529v-4.503h-1.221
				v-1.404h1.221v-2.383h1.861v2.383h2.562v1.404h-2.562v4.161c0,0.896,0.344,1.174,0.932,1.174c0.391,0,0.799-0.131,1.303-0.375
				L220.457,56.102z"/>
		</g>
	</g>
</g>
</svg>
